<?xml version="1.0" standalone="no"?>
<!DOCTYPE svg PUBLIC "-//W3C//DTD SVG 1.1//EN" "http://www.w3.org/Graphics/SVG/1.1/DTD/svg11.dtd">
<svg t="1694054589527" fill="currentColor" viewBox="0 0 1024 1024" version="1.1" xmlns="http://www.w3.org/2000/svg" p-id="2953" xmlns:xlink="http://www.w3.org/1999/xlink" width="200" height="200"><path d="M245.34416 256c0 141.376 119.36 256 266.656 256 147.264 0 266.656-114.624 266.656-256S659.26416 0 512.00016 0c-70.72 0-138.56 26.976-188.576 74.976-50.016 48-78.08 113.12-78.08 181.024z m509.824 312.32h-21.856a65.056 65.056 0 0 0-26.112 6.144s-17.6 9.728-33.6 16.384c-50.688 20.32-105.088 30.72-160 30.72a416.64 416.64 0 0 1-160-30.72c-16-6.656-34.144-16.384-34.144-16.384a55.136 55.136 0 0 0-26.144-6.144H270.40016c-93.792 16.448-171.968 78.496-206.4 163.84a419.968 419.968 0 0 0-32 161.28c1.888 16.32 11.776 30.784 26.656 38.912C58.65616 932.352 208.00016 1024 512.00016 1024s453.312-91.648 453.312-91.648c15.04-8.224 24.96-22.912 26.656-39.424a401.632 401.632 0 0 0-30.912-158.72c-33.056-86.88-111.232-150.656-205.888-167.936v2.048z" fill="#E27045" p-id="2954"></path></svg>