<?xml version="1.0" standalone="no"?><!DOCTYPE svg PUBLIC "-//W3C//DTD SVG 1.1//EN" "http://www.w3.org/Graphics/SVG/1.1/DTD/svg11.dtd"><svg t="1744374192143" class="icon" viewBox="0 0 1024 1024" version="1.1" xmlns="http://www.w3.org/2000/svg" p-id="1663" xmlns:xlink="http://www.w3.org/1999/xlink" width="200" height="200"><path d="M873.984 195.584c-30.72-36.352-75.776-71.168-128.512-98.816-56.32-31.744-119.808-52.224-187.392-58.368-2.048 0-4.096-0.512-6.144-0.512h-2.56c-11.264-1.024-22.528-1.536-34.304-1.536h-4.096C247.296 35.84 32.256 250.88 32.256 515.584s215.04 479.744 479.744 479.744h4.096c128.512 0 245.248-50.176 331.776-131.584 9.216-10.24 29.696-28.16 15.36-50.176L599.04 545.28l278.528-293.376c20.48-20.992 0-55.296-3.584-56.32z" fill="#59D599" p-id="1664"></path><path d="M883.712 544.256m-108.032 0a108.032 108.032 0 1 0 216.064 0 108.032 108.032 0 1 0-216.064 0Z" fill="#59D599" p-id="1665"></path><path d="M499.2 329.728H412.672V243.2h-87.04v86.528H239.616v87.04h86.016v86.528h87.04V416.768h86.528z" fill="#1AAC8D" p-id="1666"></path></svg>