<?xml version="1.0" standalone="no"?>
<!DOCTYPE svg PUBLIC "-//W3C//DTD SVG 1.1//EN" "http://www.w3.org/Graphics/SVG/1.1/DTD/svg11.dtd">
<svg t="1693981501505" fill="currentColor" viewBox="0 0 1024 1024" version="1.1" xmlns="http://www.w3.org/2000/svg" p-id="3509" xmlns:xlink="http://www.w3.org/1999/xlink" width="200" height="200"><path d="M277.0944 322.048c-53.9648 0-98.4064-39.3728-104.7552-90.2144v562.9952c0 62.72 52.2752 113.5616 116.736 113.5616h570.88V322.048H277.0944z" fill="#FF5F5F" p-id="3510"></path><path d="M455.5776 570.9312c-3.4304 0-6.8608-0.768-10.1376-2.304a23.37792 23.37792 0 0 1-13.4656-21.2992V322.7648c0-8.4992 6.8608-15.36 15.36-15.36s15.36 6.8608 15.36 15.36v209.3568l78.2848-64.256a23.53664 23.53664 0 0 1 29.8496 0l78.2848 64.256V321.28c0-8.4992 6.8608-15.36 15.36-15.36s15.36 6.8608 15.36 15.36v226.048c0 9.216-5.1712 17.3568-13.4656 21.2992a23.296 23.296 0 0 1-24.9856-3.072l-85.4528-70.144-85.4528 70.144c-4.3008 3.5328-9.5744 5.376-14.8992 5.376z" fill="#FFFFFF" p-id="3511"></path><path d="M295.5776 203.3664c-8.4992 0-15.36 6.8608-15.36 15.36s6.8608 15.36 15.36 15.36h492.3904c8.4992 0 15.36-6.8608 15.36-15.36s-6.8608-15.36-15.36-15.36H295.5776z" fill="#424242" p-id="3512"></path><path d="M859.904 306.688H277.0944c-45.568 0-84.0704-33.024-89.5488-76.7488v-0.1024c-0.4096-3.4816-0.7168-6.9632-0.7168-10.5472 0-48.1792 39.2192-87.3984 87.3984-87.3984h575.5392c8.4992 0 15.36-6.8608 15.36-15.36s-6.8608-15.36-15.36-15.36H274.2272c-65.1264 0-118.1184 52.992-118.1184 118.1184 0 4.7104 0.3072 9.3184 0.8192 13.8752v561.664c0 71.1168 59.2896 128.9216 132.096 128.9216h570.88c8.4992 0 15.36-6.8608 15.36-15.36V322.048c0-8.4992-6.8608-15.36-15.36-15.36z m-15.36 586.3424H289.0752c-55.9104 0-101.376-44.0832-101.376-98.2016V299.52c21.6064 23.2448 52.3776 37.888 86.5792 37.888h570.368v555.6224z" fill="#424242" p-id="3513"></path></svg>