<?xml version="1.0" standalone="no"?>
<!DOCTYPE svg PUBLIC "-//W3C//DTD SVG 1.1//EN" "http://www.w3.org/Graphics/SVG/1.1/DTD/svg11.dtd">
<svg t="1693987415184" fill="currentColor" viewBox="0 0 1024 1024" version="1.1" xmlns="http://www.w3.org/2000/svg" p-id="16003" xmlns:xlink="http://www.w3.org/1999/xlink" width="200" height="200"><path d="M514 65.5c-246.5 0-446.3 199.8-446.3 446.3S267.5 958.1 514 958.1s446.3-199.8 446.3-446.3S760.5 65.5 514 65.5z m51.5 208.8c61.3 0 111 49.7 111 111s-49.7 111-111 111-111-49.7-111-111 49.7-111 111-111z m-103 0c3.2 0 6.3 0.1 9.4 0.4-56.9 4.7-101.7 52.5-101.7 110.6 0 58.2 44.8 105.9 101.7 110.7-3.1 0.3-6.2 0.4-9.4 0.4-61.3 0-111-49.7-111-111 0-61.4 49.7-111.1 111-111.1z m-204 451.8h-18.7c0-105.2 73-193.4 171.1-216.7 2.2 1.1 4.4 2.2 6.7 3.2-92 27.4-159.1 112.6-159.1 213.5z m84.4 0c0-105.2 73-193.4 171.1-216.7 15.4 8.1 33 12.7 51.6 12.7s36.2-4.6 51.5-12.7c98.1 23.3 171.1 111.4 171.1 216.7H342.9z" fill="#29ABE2" p-id="16004"></path></svg>