<?xml version="1.0" standalone="no"?>
<!DOCTYPE svg PUBLIC "-//W3C//DTD SVG 1.1//EN" "http://www.w3.org/Graphics/SVG/1.1/DTD/svg11.dtd">
<svg t="1693987699453" fill="currentColor" viewBox="0 0 1024 1024" version="1.1" xmlns="http://www.w3.org/2000/svg" p-id="2210" xmlns:xlink="http://www.w3.org/1999/xlink" width="200" height="200"><path d="M382.54617244 910.71778725l41.4252255-41.42522428c36.24707201 10.35630577 72.49414281 15.53445925 113.91936708 15.53445925 212.30427614 0 388.36148148-176.05720534 388.36148149-388.36148147 0-41.42522429-5.17815349-77.6722963-15.53445926-113.91936831l41.4252255-41.42522429c20.71261275 46.60337778 25.89076502 98.38490905 25.89076503 155.3445926 0 243.37319466-196.76981689 440.14301275-440.14301276 440.14301274-56.95968355 0-108.74121482-5.17815349-155.34459258-25.89076624z m-258.90765392-253.72950042c-20.71261275-46.60337778-25.89076502-98.38490905-25.89076503-155.3445926 0-243.37319466 196.76981689-440.14301275 440.14301153-440.14301275 56.95968355 0 108.74121482 10.35630577 155.3445926 25.89076503l-41.42522429 41.4252255c-36.24707201-10.35630577-72.49414281-15.53445925-113.91936831-15.53445926C325.58648889 108.10405925 149.52928355 284.16126461 149.52928355 496.46554075c0 41.42522429 5.17815349 77.6722963 15.53445926 113.9193683l-41.42522429 46.60337778z" fill="#8a8a8a" p-id="2211"></path></svg>