<?xml version="1.0" standalone="no"?><!DOCTYPE svg PUBLIC "-//W3C//DTD SVG 1.1//EN" "http://www.w3.org/Graphics/SVG/1.1/DTD/svg11.dtd"><svg t="1744617323489" class="icon" viewBox="0 0 1024 1024" version="1.1" xmlns="http://www.w3.org/2000/svg" p-id="10529" xmlns:xlink="http://www.w3.org/1999/xlink" width="200" height="200"><path d="M430.98427 1024C189.117794 981.050529 4.507253 770.072783 4.507253 515.39365a493.83871 493.83871 0 0 1 11.298799-106.270866c22.607623 24.061328 74.590117 23.359539 87.4128-12.030664 23.349514 13.564574 53.496353 15.830349 53.496353 43.701387 0 90.420466 3.007666 186.86629 85.137 188.380149 2.265775 0 45.967162 16.57224 66.30901 70.068592 6.7873 18.838015 35.42028 0 66.30901 0 15.820323 0 0 26.377231 0 82.129334s121.309196 142.362858 121.309197 142.362858c-0.751917 36.924113 0.751917 67.060927 3.769608 91.172383-27.129148-0.701789-50.478661 3.077845-68.56476 9.093177zM648.73929 1015.708867c-3.007666-12.802632-14.31649-20.341848-36.172197-14.31649 17.334182-72.334368 25.625315-113.018064 61.035569-143.916819 51.240603-44.453304 6.015332-94.180049-33.154505-88.906608-30.88873 4.521525-11.298799-38.427946-39.179862-40.693721s-63.291319-57.265961-103.263201-76.103976c-21.053662-9.78494-41.445638-36.162171-73.848226-37.666004-28.622955-0.751917-70.820509 24.061328-70.820509 4.511499 0-63.291319-6.7873-108.496539-7.539217-125.830721-0.751917-14.31649-9.794966-4.521525 29.384898-3.759583 21.10379 0.751917 10.546882-42.197554 31.650672-44.463329 20.341848-1.503833 69.316676 19.599957 82.129333 10.556908 11.308824-7.539216 85.147025 192.881622 85.147025 33.144479 0-18.838015-9.794966-51.982494 0-70.068593 39.169837-70.830535 75.342034-128.848412 72.334368-137.139545-2.265775-4.521525-39.931779-9.022998-70.078618 1.503833-10.546882 3.007666 3.007666 19.599957-11.298799 22.607623-55.000186 12.812657-103.98504-15.03833-86.660884-40.693721 17.334182-26.367205 80.625501-11.298799 86.660884-64.795152 3.007666-30.136814 6.015332-66.30901 7.529191-91.924299C647.195355 119.063472 638.904222 11.308824 528.141908 0c223.790403 2.265775 412.912443 146.934511 482.229119 346.613458-3.759583-3.007666-7.529191-5.273441-12.030664-5.273441-33.154505-83.643192-114.531922-23.359539-86.650858 50.478661-147.666376 113.028089-109.268507 192.139731-61.015518 237.354978 25.625315 24.111456 49.73677 59.521711 65.557094 85.136999-17.334182 50.488687 63.291319 30.146839 103.2632-55.000186-52.032622 174.053633-192.93175 311.193178-370.754991 356.398398z" fill="#6E72DF" p-id="10530"></path><path d="M514.256516 211.68956c-101.829546 0-184.540362 82.750918-184.540361 184.540362s184.540362 306.832062 184.540361 306.832062 184.530336-205.032593 184.530337-306.781934-82.740892-184.590489-184.530337-184.59049z m-2.877333 234.838563a62.930399 62.930399 0 1 1 62.920373-62.930398 62.930399 62.930399 0 0 1-62.920373 62.930398z" fill="#2AC287" p-id="10531"></path></svg>