<?xml version="1.0" standalone="no"?>
<!DOCTYPE svg PUBLIC "-//W3C//DTD SVG 1.1//EN" "http://www.w3.org/Graphics/SVG/1.1/DTD/svg11.dtd">
<svg t="1693985935385" fill="currentColor" viewBox="0 0 1024 1024" version="1.1" xmlns="http://www.w3.org/2000/svg" p-id="10839" xmlns:xlink="http://www.w3.org/1999/xlink" width="200" height="200"><path d="M352.256 102.4H150.528c-51.2 0-92.672 38.4-92.672 89.6v204.8c0 51.2 41.472 89.6 89.6 89.6h204.8c51.2 0 89.6-41.472 89.6-89.6v-204.8c-0.512-51.2-38.4-89.6-89.6-89.6z m585.216 128L793.6 86.528c-35.328-35.328-92.672-35.328-128 0L521.728 230.4c-15.872 15.872-25.6 38.4-25.6 64s9.728 48.128 25.6 64L665.6 502.272c15.872 15.872 38.4 25.6 64 25.6s48.128-9.728 64-25.6L937.472 358.4c15.872-15.872 25.6-38.4 25.6-64 3.584-25.6-6.144-48.128-25.6-64zM352.256 582.656H150.528c-51.2 0-89.6 41.472-89.6 89.6v204.8c0 51.2 41.472 89.6 89.6 89.6h201.728c51.2 0 89.6-41.472 89.6-89.6v-204.8c-0.512-51.712-38.4-89.6-89.6-89.6z m479.744 0h-204.8c-51.2 0-89.6 41.472-89.6 89.6v204.8c0 51.2 41.472 89.6 89.6 89.6h204.8c51.2 0 89.6-41.472 89.6-89.6v-204.8c0-51.712-38.4-89.6-89.6-89.6z" fill="#0D65E5" p-id="10840"></path></svg>