<?xml version="1.0" standalone="no"?>
<!DOCTYPE svg PUBLIC "-//W3C//DTD SVG 1.1//EN" "http://www.w3.org/Graphics/SVG/1.1/DTD/svg11.dtd">
<svg t="1694054412903" fill="currentColor" viewBox="0 0 1024 1024" version="1.1" xmlns="http://www.w3.org/2000/svg" p-id="2662" xmlns:xlink="http://www.w3.org/1999/xlink" width="200" height="200"><path d="M769.4336 950.016H283.1872c-107.264 0-194.2016-86.9376-194.2016-194.2016V269.5168c0-107.264 86.9376-194.2016 194.2016-194.2016h486.2464c107.264 0 194.2016 86.9376 194.2016 194.2016v486.2464c0 107.264-86.9376 194.2528-194.2016 194.2528z" fill="#FC5656" p-id="2663"></path><path d="M711.5264 397.9776v-26.5216c0-102.144-83.0976-185.2416-185.2416-185.2416S341.0944 269.312 341.0944 371.456v26.5216c-66.2016 9.0112-117.4016 65.8944-117.4016 134.5536v154.624c0 74.9056 60.928 135.8336 135.8336 135.8336h201.8816c14.1312 0 25.6-11.4688 25.6-25.6s-11.4688-25.6-25.6-25.6H359.5264c-46.6944 0-84.6336-37.9904-84.6336-84.6336v-154.624c0-46.6944 37.9904-84.6336 84.6336-84.6336h333.568c46.6944 0 84.6336 37.9904 84.6336 84.6336v154.624c0 46.6944-37.9904 84.6336-84.6336 84.6336-14.1312 0-25.6 11.4688-25.6 25.6s11.4688 25.6 25.6 25.6c74.9056 0 135.8336-60.928 135.8336-135.8336v-154.624c0-68.6592-51.2-125.5424-117.4016-134.5536z m-185.2416-160.5632c73.8816 0 134.0416 60.1088 134.0416 134.0416v25.2416H392.2944v-25.2416c0-73.9328 60.1088-134.0416 133.9904-134.0416z" fill="#F7F8F8" p-id="2664"></path><path d="M507.136 558.7968v111.5136c0 14.1312 11.4688 25.6 25.6 25.6s25.6-11.4688 25.6-25.6v-111.5136c0-14.1312-11.4688-25.6-25.6-25.6s-25.6 11.4688-25.6 25.6z" fill="#F7F8F8" p-id="2665"></path></svg>