<?xml version="1.0" standalone="no"?>
<!DOCTYPE svg PUBLIC "-//W3C//DTD SVG 1.1//EN" "http://www.w3.org/Graphics/SVG/1.1/DTD/svg11.dtd">
<svg t="1694066538688" fill="currentColor" viewBox="0 0 1024 1024" version="1.1" xmlns="http://www.w3.org/2000/svg" p-id="8274" xmlns:xlink="http://www.w3.org/1999/xlink" width="200" height="200"><path d="M953.9 493.2A852.1 852.1 0 0 0 826.9 360C722.5 270.9 613.6 224 512 224 268.8 224 78.1 482.2 70 493.2a32.1 32.1 0 0 0 0 37.6 852.1 852.1 0 0 0 127 133.6C301.5 753.1 410 800 512 800c243.2 0 433.9-258.2 441.9-269.2a32.1 32.1 0 0 0 0-37.6zM512 736c-175.4 0-328.2-167-375.3-224 47-57.1 199.5-224 375.3-224S840 454.9 887.2 512C840 569.1 687.4 736 512 736z" fill="#333333" p-id="8275"></path><path d="M512 352a160 160 0 1 0 160 160 160 160 0 0 0-160-160z m0 256a96 96 0 1 1 96-96 96.2 96.2 0 0 1-96 96z" fill="#333333" p-id="8276"></path></svg>