<?xml version="1.0" standalone="no"?>
<!DOCTYPE svg PUBLIC "-//W3C//DTD SVG 1.1//EN" "http://www.w3.org/Graphics/SVG/1.1/DTD/svg11.dtd">
<svg t="1693970050855" fill="currentColor" viewBox="0 0 1024 1024" version="1.1" xmlns="http://www.w3.org/2000/svg" p-id="2668" xmlns:xlink="http://www.w3.org/1999/xlink" width="200" height="200"><path d="M512 1024a512 512 0 1 1 512-512 512 512 0 0 1-512 512z m279.68-712.96a39.808 39.808 0 0 0-56.96 0l-312 320.96-142.08-145.6a38.88 38.88 0 0 0-56.64 0 41.92 41.92 0 0 0 0 58.24l170.24 175.04a39.424 39.424 0 0 0 56.64 0l340.8-350.08a42.336 42.336 0 0 0 0-58.56z" fill="#2c2c2c" p-id="2669"></path></svg>