<?xml version="1.0" standalone="no"?>
<!DOCTYPE svg PUBLIC "-//W3C//DTD SVG 1.1//EN" "http://www.w3.org/Graphics/SVG/1.1/DTD/svg11.dtd">
<svg t="1693982872998" fill="currentColor" viewBox="0 0 1024 1024" version="1.1" xmlns="http://www.w3.org/2000/svg" p-id="4999" xmlns:xlink="http://www.w3.org/1999/xlink" width="200" height="200"><path d="M509.9008 513.1264m-450.816 0a450.816 450.816 0 1 0 901.632 0 450.816 450.816 0 1 0-901.632 0Z" fill="#FF5C64" p-id="5000"></path><path d="M843.008 445.4912l-79.872 3.4304 1.792 41.472-36.5568-22.272c6.0928-19.0976 9.4208-39.424 9.4208-60.5184 0-109.824-89.344-199.168-199.168-199.168S339.456 297.728 339.456 407.552s89.344 199.168 199.168 199.168c60.0576 0 113.92-26.7264 150.4768-68.9152l38.7584 23.6032-41.2672 23.808 39.9872 69.2736 122.368-70.656-5.9392-138.3424z m-304.384 81.2544c-65.7408 0-119.1936-53.4528-119.1936-119.1936s53.504-119.1936 119.1936-119.1936 119.1936 53.504 119.1936 119.1936-53.4528 119.1936-119.1936 119.1936z" fill="#FFFFFF" p-id="5001"></path><path d="M433.664 643.84c13.7728-3.1744 26.9824-7.7824 39.4752-13.6192a231.48544 231.48544 0 0 1-102.5536-62.6688c-57.0368-8.8576-100.8128-58.3168-100.8128-117.8112 0-36.2496 16.2816-68.7104 41.8816-90.624a231.3216 231.3216 0 0 1 54.8864-107.264C267.264 263.0656 189.7984 347.4944 189.7984 449.7408c0 97.792 70.8608 179.2512 163.8912 195.9936v31.3344H285.4912v79.9744h68.1984v57.1392H433.664v-57.1392h68.1984v-79.9744H433.664v-33.2288z" fill="#FFFFFF" p-id="5002"></path></svg>