<?xml version="1.0" standalone="no"?>
<!DOCTYPE svg PUBLIC "-//W3C//DTD SVG 1.1//EN" "http://www.w3.org/Graphics/SVG/1.1/DTD/svg11.dtd">
<svg t="1693980435839" fill="currentColor" viewBox="0 0 1024 1024" version="1.1" xmlns="http://www.w3.org/2000/svg" p-id="2501" xmlns:xlink="http://www.w3.org/1999/xlink" width="200" height="200"><path d="M512 1011.9c-66.8 0-133.6-13.3-197.2-39.8C54.3 863.4-69.2 563 39.5 302.4c52.3-125.3 150-223 275.3-275.3 18.2-7.6 39.1 1 46.7 19.2 7.6 18.2-1 39.1-19.2 46.7-107.8 45-191.9 129.1-236.9 236.9-93.6 224.2 12.7 482.7 236.9 576.3 108.6 45.3 228.3 45.7 337.2 0.9 108.8-44.7 193.7-129.2 239-237.8 93.6-224.2-12.7-482.7-236.9-576.2-18.1-7.6-26.7-28.6-19.1-46.7 7.6-18.2 28.4-26.8 46.7-19.2 260.5 108.7 384 409.1 275.3 669.7-52.7 126.2-151.3 224.3-277.8 276.3-62.8 25.8-128.8 38.7-194.7 38.7z" fill="#27D0D8" p-id="2502"></path><path d="M512.1 536c-19.7 0-35.7-16-35.7-35.7V47.8c0-19.7 16-35.7 35.7-35.7 19.7 0 35.7 16 35.7 35.7v452.5c0 19.7-16 35.7-35.7 35.7z" fill="#27D0D8" p-id="2503"></path></svg>