<?xml version="1.0" standalone="no"?>
<!DOCTYPE svg PUBLIC "-//W3C//DTD SVG 1.1//EN" "http://www.w3.org/Graphics/SVG/1.1/DTD/svg11.dtd">
<svg t="1693970040936" fill="currentColor" viewBox="0 0 1024 1024" version="1.1" xmlns="http://www.w3.org/2000/svg" p-id="2380" xmlns:xlink="http://www.w3.org/1999/xlink" width="200" height="200"><path d="M512.000512 1017.670851c-68.258617 0-134.482901-13.371542-196.834994-39.744189-60.217477-25.470091-114.294093-61.928445-160.728658-108.364033-46.434565-46.434565-82.893942-100.512205-108.36301-160.728658-26.372647-62.352093-39.744189-128.575354-39.744189-196.834994s13.371542-134.482901 39.744189-196.834994c25.469068-60.216453 61.928445-114.293069 108.36301-160.728658 46.434565-46.434565 100.512205-82.893942 160.728658-108.36301 62.352093-26.372647 128.576377-39.745213 196.834994-39.745213 68.258617 0 134.482901 13.371542 196.833971 39.745213 60.217477 25.469068 114.294093 61.928445 160.728658 108.36301 46.434565 46.435589 82.893942 100.513228 108.36301 160.728658 26.372647 62.352093 39.744189 128.575354 39.744189 196.834994s-13.371542 134.482901-39.744189 196.834994c-25.469068 60.216453-61.928445 114.293069-108.36301 160.728658s-100.512205 82.893942-160.728658 108.364033C646.483412 1004.299309 580.259128 1017.670851 512.000512 1017.670851zM512.000512 37.028335c-64.12753 0-126.329197 12.55699-184.876638 37.319977-56.558134 23.921829-107.355053 58.170864-150.980643 101.797477-43.62559 43.62559-77.875648 94.421486-101.797477 150.97962-24.762987 58.547441-37.318954 120.748085-37.318954 184.875614s12.555967 126.329197 37.318954 184.875614c23.921829 56.558134 58.170864 107.355053 101.797477 150.980643 43.62559 43.62559 94.42251 77.874625 150.980643 101.796454 58.547441 24.76401 120.748085 37.319977 184.876638 37.319977 64.12753 0 126.329197-12.555967 184.875614-37.319977 56.558134-23.921829 107.355053-58.170864 150.980643-101.796454 43.62559-43.62559 77.874625-94.42251 101.797477-150.980643 24.762987-58.546418 37.318954-120.748085 37.318954-184.875614s-12.555967-126.328173-37.318954-184.875614c-23.921829-56.558134-58.170864-107.35403-101.797477-150.97962-43.62559-43.626613-94.42251-77.875648-150.980643-101.797477C638.328685 49.584302 576.128041 37.028335 512.000512 37.028335z" p-id="2381"></path></svg>