<?xml version="1.0" standalone="no"?>
<!DOCTYPE svg PUBLIC "-//W3C//DTD SVG 1.1//EN" "http://www.w3.org/Graphics/SVG/1.1/DTD/svg11.dtd">
<svg t="1693901845148" fill="currentColor" viewBox="0 0 1050 1024" version="1.1" xmlns="http://www.w3.org/2000/svg" p-id="2250" xmlns:xlink="http://www.w3.org/1999/xlink" width="205.078125" height="200"><path d="M530.356114 223.034137C245.103269 223.034137 13.885352 446.786667 13.885352 557.218105c0 102.236936 231.217917 334.186648 516.470762 334.186648 285.258206 0 516.484165-227.848441 516.484165-334.186648S815.61432 223.034137 530.356114 223.034137L530.356114 223.034137zM530.356114 830.649636c-261.856831 0-455.715645-216.295184-455.715645-273.431532 0-64.06562 194.220691-273.42349 455.715645-273.42349 261.481551 0 455.729048 209.357869 455.729048 273.42349C986.085162 621.297128 791.837665 830.649636 530.356114 830.649636L530.356114 830.649636zM530.356114 329.356261c-117.226682 0-212.668373 95.406843-212.668373 212.663012 0 117.274933 95.441691 212.663012 212.668373 212.663012 117.240085 0 212.681776-95.38808 212.681776-212.663012C743.03789 424.765785 647.596199 329.356261 530.356114 329.356261L530.356114 329.356261zM530.356114 693.927169c-83.754406 0-151.886451-68.140087-151.886451-151.907896 0-83.746364 68.132045-151.894493 151.886451-151.894493 83.759767 0 151.92666 68.145448 151.92666 151.894493C682.282773 625.787082 614.115881 693.927169 530.356114 693.927169L530.356114 693.927169zM530.356114 420.503679c-67.014247 0-121.523636 54.509389-121.523636 121.515594 0 16.780368 13.59585 30.411065 30.376218 30.411065 16.807173 0 30.376218-13.630698 30.376218-30.411065 0-33.507124 27.253354-60.760478 60.768519-60.760478 16.799131 0 30.376218-13.603892 30.376218-30.376218C560.732332 434.126335 547.155245 420.503679 530.356114 420.503679L530.356114 420.503679z" fill="#1CACE8" p-id="2251"></path></svg>